<!--?xml version="1.0" standalone="no"?-->              <svg id="sw-js-blob-svg" viewBox="0 0 100 100" xmlns="http://www.w3.org/2000/svg" version="1.1">                    <defs>                         <linearGradient id="sw-gradient" x1="0" x2="1" y1="1" y2="0">                            <stop id="stop1" stop-color="rgba(86.2, 255, 0, 1)" offset="0%"></stop>                            <stop id="stop2" stop-color="rgba(0, 255, 207.491, 0.41)" offset="100%"></stop>                        </linearGradient>                    </defs>                <path fill="url(#sw-gradient)" d="M22.6,-39.1C28.5,-35.7,32.1,-28.2,35.3,-20.9C38.5,-13.7,41.2,-6.9,42.2,0.6C43.2,8,42.4,16,39.1,22.9C35.7,29.8,29.8,35.6,22.8,38.8C15.9,42,7.9,42.8,-0.1,42.9C-8.1,43,-16.1,42.5,-22.5,38.9C-28.8,35.3,-33.4,28.6,-37.2,21.6C-40.9,14.6,-43.8,7.3,-44.6,-0.5C-45.5,-8.3,-44.3,-16.6,-40,-22.6C-35.7,-28.6,-28.3,-32.3,-21.1,-35.1C-13.9,-37.8,-6.9,-39.5,0.7,-40.7C8.3,-41.9,16.6,-42.6,22.6,-39.1Z" width="100%" height="100%" transform="translate(50 50)" stroke-width="0" style="transition: all 0.3s ease 0s;"></path>              </svg>