<!--?xml version="1.0" standalone="no"?-->              <svg id="sw-js-blob-svg" viewBox="0 0 100 100" xmlns="http://www.w3.org/2000/svg">                    <defs>                         <linearGradient id="sw-gradient" x1="0" x2="1" y1="1" y2="0">                            <stop id="stop1" stop-color="rgba(85.069, 251.656, 0, 1)" offset="0%"></stop>                            <stop id="stop2" stop-color="rgba(31, 251, 210.012, 0.41)" offset="100%"></stop>                        </linearGradient>                    </defs>                <path fill="url(#sw-gradient)" d="M21.4,-26.1C28.4,-19.5,35.4,-13.5,38.6,-5.4C41.8,2.8,41.1,13.1,36.5,21C31.9,29,23.2,34.6,13.7,38.3C4.2,42,-6.2,43.8,-15.7,41.2C-25.1,38.6,-33.5,31.4,-37.2,22.7C-40.8,13.9,-39.7,3.6,-36.9,-5.5C-34.1,-14.6,-29.8,-22.4,-23.3,-29.1C-16.9,-35.8,-8.5,-41.3,-0.7,-40.5C7.2,-39.8,14.3,-32.7,21.4,-26.1Z" width="80%" height="100%" transform="translate(50 50)" stroke-width="0" style="transition: all 0.3s ease 0s;"></path>              </svg>